HIERARCHY
ROOT Hips
{
	OFFSET -0.001795 -0.223333 0.028219
	CHANNELS 6 Xposition Yposition Zposition Zrotation Yrotation Xrotation 
	JOINT LeftUpLeg
	{
		OFFSET 0.069520 -0.091406 -0.006815
		CHANNELS 3 Zrotation Yrotation Xrotation
		JOINT LeftLeg
		{
			OFFSET 0.034277 -0.375199 -0.004496
			CHANNELS 3 Zrotation Yrotation Xrotation
			JOINT LeftFoot
			{
				OFFSET -0.013596 -0.397961 -0.043693
				CHANNELS 3 Zrotation Yrotation Xrotation
				JOINT LeftToe
				{
					OFFSET 0.026358 -0.055791 0.119288
					CHANNELS 3 Zrotation Yrotation Xrotation
					End Site
					{
						OFFSET 0.000000 0.000000 0.000000
					}
				}
			}
		}
	}
	JOINT RightUpLeg
	{
		OFFSET -0.067670 -0.090522 -0.004320
		CHANNELS 3 Zrotation Yrotation Xrotation
		JOINT RightLeg
		{
			OFFSET -0.038290 -0.382569 -0.008850
			CHANNELS 3 Zrotation Yrotation Xrotation
			JOINT RightFoot
			{
				OFFSET 0.015774 -0.398415 -0.042312
				CHANNELS 3 Zrotation Yrotation Xrotation
				JOINT RightToe
				{
					OFFSET -0.025372 -0.048144 0.123348
					CHANNELS 3 Zrotation Yrotation Xrotation
					End Site
					{
						OFFSET 0.000000 0.000000 0.000000
					}
				}
			}
		}
	}
	JOINT Spine
	{
		OFFSET -0.002533 0.108963 -0.026696
		CHANNELS 3 Zrotation Yrotation Xrotation
		JOINT Spine1
		{
			OFFSET 0.005487 0.135180 0.001092
			CHANNELS 3 Zrotation Yrotation Xrotation
			JOINT Spine2
			{
				OFFSET 0.001457 0.052922 0.025425
				CHANNELS 3 Zrotation Yrotation Xrotation
				JOINT Neck
				{
					OFFSET -0.002778 0.213870 -0.042857
					CHANNELS 3 Zrotation Yrotation Xrotation
					JOINT Head
					{
						OFFSET 0.005152 0.064970 0.051349
						CHANNELS 3 Zrotation Yrotation Xrotation
						End Site
						{
							OFFSET 0.000000 0.000000 0.000000
						}
					}
				}
				JOINT LeftShoulder
				{
					OFFSET 0.078845 0.121749 -0.034090
					CHANNELS 3 Zrotation Yrotation Xrotation
					JOINT LeftArm
					{
						OFFSET 0.090977 0.030469 -0.008868
						CHANNELS 3 Zrotation Yrotation Xrotation
						JOINT LeftForeArm
						{
							OFFSET 0.259612 -0.012772 -0.027456
							CHANNELS 3 Zrotation Yrotation Xrotation
							JOINT LeftHand
							{
								OFFSET 0.249234 0.008986 -0.001171
								CHANNELS 3 Zrotation Yrotation Xrotation
								End Site
								{
									OFFSET 0.000000 0.000000 0.000000
								}
							}
						}
					}
				}
				JOINT RightShoulder
				{
					OFFSET -0.081759 0.118833 -0.038615
					CHANNELS 3 Zrotation Yrotation Xrotation
					JOINT RightArm
					{
						OFFSET -0.096012 0.032551 -0.009143
						CHANNELS 3 Zrotation Yrotation Xrotation
						JOINT RightForeArm
						{
							OFFSET -0.253742 -0.013329 -0.021401
							CHANNELS 3 Zrotation Yrotation Xrotation
							JOINT RightHand
							{
								OFFSET -0.255298 0.007772 -0.005559
								CHANNELS 3 Zrotation Yrotation Xrotation
								End Site
								{
									OFFSET 0.000000 0.000000 0.000000
								}
							}
						}
					}
				}
			}
		}
	}
}
MOTION
Frames: 13
Frame Time: 0.050000
-0.593389 0.889469 0.322964 -7.975655 62.617691 -2.897695 -0.509843 -1.205654 -11.854918 -11.841830 -9.128406 45.518721 9.967487 13.257553 -3.887987 0.000000 0.000000 0.000000 2.811073 -4.342851 -35.531780 -29.337311 -3.517779 76.211028 10.266556 17.602239 8.564706 0.000000 0.000000 0.000000 8.084649 -2.827358 13.212942 -9.405473 2.606992 -23.464646 2.174955 -0.695925 30.874237 10.067308 2.941961 -28.852215 0.000000 0.000000 0.000000 -17.001830 -5.802229 -9.708926 -48.108636 0.570022 -5.862791 -39.894911 -48.089629 12.087828 0.000000 0.000000 0.000000 24.660465 -15.526680 0.155971 56.858546 10.461471 -3.815616 29.382900 55.605440 29.311196 0.000000 0.000000 0.000000 
-0.541281 0.899138 0.348319 -13.504327 70.237405 -7.535050 0.292607 -0.447800 -5.576869 -3.850202 -9.752845 37.887000 8.381511 7.658307 -3.561661 0.000000 0.000000 0.000000 5.732974 -7.272588 -42.245660 -23.248743 -8.078885 70.257059 9.099162 16.576472 5.464858 0.000000 0.000000 0.000000 9.968552 -3.322543 12.586422 -10.174613 2.246190 -24.519932 1.654099 -5.833808 30.591906 8.258528 4.102743 -29.013806 0.000000 0.000000 0.000000 -15.770443 -5.703504 -9.188096 -48.608279 -0.140072 -6.056328 -50.663972 -52.429456 17.927142 0.000000 0.000000 0.000000 22.095382 -18.304375 -2.913878 57.214981 5.409905 -4.754115 35.528704 52.896782 32.106227 0.000000 0.000000 0.000000 
-0.479067 0.917240 0.378170 -19.783537 75.058966 -11.492140 3.347222 -0.993147 1.202686 0.398137 -5.650525 25.540627 1.944457 1.866279 2.114727 0.000000 0.000000 0.000000 8.529619 -8.715046 -45.846339 -12.362541 -11.577464 57.459383 6.306012 11.347202 5.114093 0.000000 0.000000 0.000000 10.737657 -2.387771 7.986282 -10.989521 2.112129 -23.549434 2.496349 -10.587599 29.592277 6.136269 5.063781 -27.927101 0.000000 0.000000 0.000000 -13.914666 -3.667313 -8.933974 -52.424043 1.266338 -8.276794 -60.958256 -54.068097 23.407707 0.000000 0.000000 0.000000 17.216932 -18.370726 -4.634257 60.328355 -0.894438 -5.317618 37.370933 52.625032 33.346577 0.000000 0.000000 0.000000 
-0.408024 0.941221 0.411156 -22.803420 78.658260 -13.037591 5.863321 -2.252403 4.883904 -0.839947 -3.069016 18.583915 -7.697681 2.968131 16.707810 0.000000 0.000000 0.000000 8.393454 -8.756374 -44.129794 -3.204616 -12.773404 44.349670 3.020074 5.228399 14.197225 0.000000 0.000000 0.000000 9.681846 -1.378610 3.675033 -9.191047 1.946790 -23.795281 0.590653 -13.587388 29.851819 3.990827 5.949052 -26.126188 0.000000 0.000000 0.000000 -13.062940 -1.877239 -9.365819 -53.242463 2.650429 -9.431985 -64.801905 -50.499085 22.758057 0.000000 0.000000 0.000000 13.208609 -16.984605 -4.976537 61.608811 -4.839626 -5.346703 37.942462 51.263038 32.085223 0.000000 0.000000 0.000000 
-0.334023 0.962488 0.443726 -21.941695 80.779009 -12.664266 7.515454 -2.967844 5.363693 -5.601636 -3.533473 21.808389 -6.290023 9.670547 26.819870 0.000000 0.000000 0.000000 7.868760 -6.497214 -38.000331 0.836672 -11.418838 33.973634 -2.987933 -1.928699 20.048052 0.000000 0.000000 0.000000 9.576920 -1.042672 1.111214 -10.362534 1.756949 -23.878298 1.672410 -12.095058 30.558349 3.563482 6.760374 -27.056180 0.000000 0.000000 0.000000 -12.915322 -1.845951 -10.253924 -51.152457 5.086931 -9.967717 -69.943223 -46.650522 21.965216 0.000000 0.000000 0.000000 9.908105 -17.508255 -6.175648 64.289659 -8.068895 -4.485450 33.827348 50.629259 28.897761 0.000000 0.000000 0.000000 
-0.264158 0.969483 0.472553 -22.313475 81.224265 -14.527961 8.433348 -2.565916 1.251248 -13.500282 -5.768541 31.637950 1.618128 15.594411 29.136169 0.000000 0.000000 0.000000 8.767711 -4.135180 -33.177848 0.740821 -9.611160 29.232294 -1.164135 0.989107 16.532881 0.000000 0.000000 0.000000 9.656860 -1.007120 0.808491 -10.409278 1.993100 -22.332223 2.062854 -10.116700 28.590936 3.194897 7.114937 -27.742523 0.000000 0.000000 0.000000 -11.318770 -1.476697 -9.708709 -51.849209 5.947915 -10.967572 -67.094460 -43.634291 18.222587 0.000000 0.000000 0.000000 10.321602 -17.243318 -5.771010 62.872506 -8.151355 -4.346141 38.604453 53.228248 33.759110 0.000000 0.000000 0.000000 
-0.199782 0.962789 0.498830 -16.341288 81.849414 -10.304991 6.127394 -1.488476 -7.322083 -19.874032 -9.964685 46.513938 7.468340 19.541448 24.622231 0.000000 0.000000 0.000000 9.371636 -2.163423 -27.920210 -0.097286 -8.131588 25.962034 -4.608055 -3.770127 15.979076 0.000000 0.000000 0.000000 9.367489 -1.029477 1.606890 -10.245467 2.117474 -21.668919 2.640633 -7.991396 27.823390 4.184257 6.800631 -25.936691 0.000000 0.000000 0.000000 -11.395296 -1.671337 -10.244857 -51.047430 6.982717 -11.049249 -62.018971 -41.938585 15.118410 0.000000 0.000000 0.000000 11.764365 -16.559986 -4.556960 60.814548 -4.829371 -3.687680 38.086829 53.916937 34.347236 0.000000 0.000000 0.000000 
-0.138878 0.939563 0.524375 -10.465763 80.666549 -7.840108 6.222565 -2.324579 -15.202684 -32.997698 -9.482990 58.930530 16.297270 27.906875 23.741557 0.000000 0.000000 0.000000 10.356045 -0.071370 -21.057906 -1.895787 -9.190786 28.561666 -5.645824 -8.872538 8.716629 0.000000 0.000000 0.000000 10.248262 -1.638901 5.181137 -13.937443 1.784957 -22.323406 6.213753 -3.777745 27.265574 6.005559 6.192471 -24.714295 0.000000 0.000000 0.000000 -11.707010 -1.798170 -11.035042 -49.903243 8.893361 -11.476776 -55.079400 -39.176576 11.887059 0.000000 0.000000 0.000000 14.840214 -16.199119 -2.687981 58.411683 0.850840 -2.963008 36.955788 56.679810 36.250451 0.000000 0.000000 0.000000 
-0.081866 0.914626 0.548362 -8.605833 77.777758 -8.801121 6.060097 -4.332927 -23.377250 -38.682894 -7.507617 64.465819 21.966845 34.781407 24.083407 0.000000 0.000000 0.000000 12.819173 1.087184 -16.579332 -6.434717 -9.569942 33.549446 -2.182704 -6.872285 -0.352699 0.000000 0.000000 0.000000 9.983908 -2.122566 8.167391 -10.871521 2.276266 -22.660106 4.571780 1.427855 28.382817 7.810332 5.829386 -25.649422 0.000000 0.000000 0.000000 -13.525560 -2.751035 -12.864385 -48.002726 10.428888 -10.740572 -46.503425 -37.404586 9.007914 0.000000 0.000000 0.000000 18.709429 -14.724948 0.747838 54.645107 10.282086 -1.153675 32.053960 59.825729 35.150241 0.000000 0.000000 0.000000 
-0.027957 0.899194 0.572584 -5.623269 73.390831 -7.537932 7.441037 -6.841605 -30.849082 -36.291273 -6.207914 61.461287 24.150266 38.402488 23.771338 0.000000 0.000000 0.000000 14.118584 1.498591 -9.667917 -7.251934 -8.597718 33.386033 1.083609 -2.897607 -7.552856 0.000000 0.000000 0.000000 9.403237 -2.522373 10.685162 -12.211302 2.257766 -23.709541 7.882271 6.171775 29.069413 7.692094 6.394720 -27.125164 0.000000 0.000000 0.000000 -14.103185 -3.224904 -13.602830 -48.554034 11.949068 -11.298888 -38.915622 -35.315168 6.643281 0.000000 0.000000 0.000000 21.154428 -13.750486 3.162952 51.853282 18.290185 0.295212 27.155389 62.392629 33.654394 0.000000 0.000000 0.000000 
0.025990 0.897186 0.596758 -4.707951 70.029797 -6.785375 8.678602 -8.276081 -35.088654 -26.749538 -7.106300 53.562291 20.248603 35.937510 20.175263 0.000000 0.000000 0.000000 13.905454 0.956780 -3.814888 -5.376820 -7.420685 30.180727 2.053696 -0.415643 -7.926438 0.000000 0.000000 0.000000 9.233115 -2.547981 11.113370 -12.849967 2.047921 -25.256529 9.781316 9.821774 30.937556 9.203811 6.039281 -27.774311 0.000000 0.000000 0.000000 -14.189456 -2.376863 -14.830771 -48.074156 13.421744 -11.653354 -36.564571 -33.098201 5.446283 0.000000 0.000000 0.000000 22.093032 -11.810532 5.699683 50.162032 24.161366 1.830474 17.774265 65.049702 28.705048 0.000000 0.000000 0.000000 
0.083400 0.909465 0.621338 -2.767216 66.290612 -5.376585 8.547994 -8.108933 -35.583541 -14.563216 -6.289027 39.630126 11.239173 27.226304 19.499825 0.000000 0.000000 0.000000 11.697732 -0.288991 2.784051 -4.646957 -5.523528 26.897522 3.858181 6.352502 -4.669039 0.000000 0.000000 0.000000 8.688881 -2.458856 11.453870 -13.238345 2.082336 -25.782775 11.275735 13.734597 31.870961 8.776506 6.675549 -29.862808 0.000000 0.000000 0.000000 -14.588917 -0.629211 -16.417194 -46.957012 14.998926 -11.803716 -36.374972 -31.317820 5.040938 0.000000 0.000000 0.000000 20.264503 -9.896196 6.365748 52.393906 26.037725 4.202398 8.272750 68.196643 24.001806 0.000000 0.000000 0.000000 
0.144383 0.928639 0.645799 -1.080765 62.888044 -2.989563 7.432639 -7.825352 -35.302288 -6.121929 -3.673429 25.563990 1.806263 18.461881 22.146902 0.000000 0.000000 0.000000 8.516711 -1.214949 6.750103 -4.248924 -4.255861 24.921104 5.490325 11.579666 0.043090 0.000000 0.000000 0.000000 6.779543 -1.565264 9.376168 -11.812719 2.221108 -25.625503 12.824741 16.098285 32.611575 9.624132 6.217830 -28.815220 0.000000 0.000000 0.000000 -13.191901 -0.966185 -15.621015 -47.792971 16.392361 -12.908808 -36.896399 -29.240927 4.257345 0.000000 0.000000 0.000000 18.180440 -10.928190 4.591952 55.397024 25.528346 5.992015 12.925411 69.841399 29.449125 0.000000 0.000000 0.000000 
